<svg width="40" height="40" viewBox="0 0 40 40" fill="none" xmlns="http://www.w3.org/2000/svg">
    <circle cx="20" cy="20" r="20" fill="#566b3040" />
    <path
        d="M10.9091 26.5455V16.5455H10V14.7273H12.7273V12.9091C12.7273 12.668 12.8231 12.4368 12.9935 12.2663C13.164 12.0958 13.3953 12 13.6364 12H26.3636C26.6047 12 26.836 12.0958 27.0065 12.2663C27.177 12.4368 27.2727 12.668 27.2727 12.9091V14.7273H30V16.5455H29.0909V26.5455H30V28.3636H10V26.5455H10.9091ZM20.9091 26.5455V20.1818H19.0909V26.5455H20.9091ZM16.3636 26.5455V20.1818H14.5455V26.5455H16.3636ZM25.4545 26.5455V20.1818H23.6364V26.5455H25.4545ZM14.5455 13.8182V14.7273H25.4545V13.8182H14.5455Z"
        fill="#566b30" />
</svg>